<svg xmlns="http://www.w3.org/2000/svg" viewBox="0 0 11 11" shape-rendering="crispEdges">
  <!-- Fond #0A192F -->
  <rect width="11" height="11" fill="#0A192F"/>

  <!-- Pixels inactifs #112240 / contour #1E4060 -->
  <!-- Row 0 -->
  <rect x="4" y="0" width="1" height="1" fill="#112240" stroke="#1E4060" stroke-width="0.08"/>
  <rect x="5" y="0" width="1" height="1" fill="#112240" stroke="#1E4060" stroke-width="0.08"/>
  <rect x="6" y="0" width="1" height="1" fill="#112240" stroke="#1E4060" stroke-width="0.08"/>
  <rect x="7" y="0" width="1" height="1" fill="#112240" stroke="#1E4060" stroke-width="0.08"/>
  <rect x="8" y="0" width="1" height="1" fill="#112240" stroke="#1E4060" stroke-width="0.08"/>
  <!-- Row 1 -->
  <rect x="2" y="1" width="1" height="1" fill="#112240" stroke="#1E4060" stroke-width="0.08"/>
  <rect x="5" y="1" width="1" height="1" fill="#112240" stroke="#1E4060" stroke-width="0.08"/>
  <rect x="6" y="1" width="1" height="1" fill="#112240" stroke="#1E4060" stroke-width="0.08"/>
  <rect x="7" y="1" width="1" height="1" fill="#112240" stroke="#1E4060" stroke-width="0.08"/>
  <rect x="8" y="1" width="1" height="1" fill="#112240" stroke="#1E4060" stroke-width="0.08"/>
  <!-- Row 2 -->
  <rect x="2" y="2" width="1" height="1" fill="#112240" stroke="#1E4060" stroke-width="0.08"/>
  <rect x="5" y="2" width="1" height="1" fill="#112240" stroke="#1E4060" stroke-width="0.08"/>
  <rect x="6" y="2" width="1" height="1" fill="#112240" stroke="#1E4060" stroke-width="0.08"/>
  <rect x="7" y="2" width="1" height="1" fill="#112240" stroke="#1E4060" stroke-width="0.08"/>
  <rect x="8" y="2" width="1" height="1" fill="#112240" stroke="#1E4060" stroke-width="0.08"/>
  <!-- Row 3 -->
  <rect x="2" y="3" width="1" height="1" fill="#112240" stroke="#1E4060" stroke-width="0.08"/>
  <rect x="3" y="3" width="1" height="1" fill="#112240" stroke="#1E4060" stroke-width="0.08"/>
  <rect x="6" y="3" width="1" height="1" fill="#112240" stroke="#1E4060" stroke-width="0.08"/>
  <rect x="7" y="3" width="1" height="1" fill="#112240" stroke="#1E4060" stroke-width="0.08"/>
  <rect x="8" y="3" width="1" height="1" fill="#112240" stroke="#1E4060" stroke-width="0.08"/>
  <!-- Row 4 -->
  <rect x="2" y="4" width="1" height="1" fill="#112240" stroke="#1E4060" stroke-width="0.08"/>
  <rect x="3" y="4" width="1" height="1" fill="#112240" stroke="#1E4060" stroke-width="0.08"/>
  <rect x="6" y="4" width="1" height="1" fill="#112240" stroke="#1E4060" stroke-width="0.08"/>
  <rect x="7" y="4" width="1" height="1" fill="#112240" stroke="#1E4060" stroke-width="0.08"/>
  <rect x="8" y="4" width="1" height="1" fill="#112240" stroke="#1E4060" stroke-width="0.08"/>
  <!-- Row 5 -->
  <rect x="2" y="5" width="1" height="1" fill="#112240" stroke="#1E4060" stroke-width="0.08"/>
  <rect x="3" y="5" width="1" height="1" fill="#112240" stroke="#1E4060" stroke-width="0.08"/>
  <rect x="4" y="5" width="1" height="1" fill="#112240" stroke="#1E4060" stroke-width="0.08"/>
  <rect x="7" y="5" width="1" height="1" fill="#112240" stroke="#1E4060" stroke-width="0.08"/>
  <rect x="8" y="5" width="1" height="1" fill="#112240" stroke="#1E4060" stroke-width="0.08"/>
  <!-- Row 6 -->
  <rect x="2" y="6" width="1" height="1" fill="#112240" stroke="#1E4060" stroke-width="0.08"/>
  <rect x="3" y="6" width="1" height="1" fill="#112240" stroke="#1E4060" stroke-width="0.08"/>
  <rect x="4" y="6" width="1" height="1" fill="#112240" stroke="#1E4060" stroke-width="0.08"/>
  <rect x="7" y="6" width="1" height="1" fill="#112240" stroke="#1E4060" stroke-width="0.08"/>
  <rect x="8" y="6" width="1" height="1" fill="#112240" stroke="#1E4060" stroke-width="0.08"/>
  <!-- Row 7 -->
  <rect x="2" y="7" width="1" height="1" fill="#112240" stroke="#1E4060" stroke-width="0.08"/>
  <rect x="3" y="7" width="1" height="1" fill="#112240" stroke="#1E4060" stroke-width="0.08"/>
  <rect x="4" y="7" width="1" height="1" fill="#112240" stroke="#1E4060" stroke-width="0.08"/>
  <rect x="5" y="7" width="1" height="1" fill="#112240" stroke="#1E4060" stroke-width="0.08"/>
  <rect x="8" y="7" width="1" height="1" fill="#112240" stroke="#1E4060" stroke-width="0.08"/>
  <!-- Row 8 -->
  <rect x="2" y="8" width="1" height="1" fill="#112240" stroke="#1E4060" stroke-width="0.08"/>
  <rect x="3" y="8" width="1" height="1" fill="#112240" stroke="#1E4060" stroke-width="0.08"/>
  <rect x="4" y="8" width="1" height="1" fill="#112240" stroke="#1E4060" stroke-width="0.08"/>
  <rect x="5" y="8" width="1" height="1" fill="#112240" stroke="#1E4060" stroke-width="0.08"/>
  <rect x="8" y="8" width="1" height="1" fill="#112240" stroke="#1E4060" stroke-width="0.08"/>
  <!-- Row 9 -->
  <rect x="2" y="9" width="1" height="1" fill="#112240" stroke="#1E4060" stroke-width="0.08"/>
  <rect x="3" y="9" width="1" height="1" fill="#112240" stroke="#1E4060" stroke-width="0.08"/>
  <rect x="4" y="9" width="1" height="1" fill="#112240" stroke="#1E4060" stroke-width="0.08"/>
  <rect x="5" y="9" width="1" height="1" fill="#112240" stroke="#1E4060" stroke-width="0.08"/>
  <rect x="6" y="9" width="1" height="1" fill="#112240" stroke="#1E4060" stroke-width="0.08"/>
  <!-- Row 10 -->
  <rect x="2" y="10" width="1" height="1" fill="#112240" stroke="#1E4060" stroke-width="0.08"/>
  <rect x="3" y="10" width="1" height="1" fill="#112240" stroke="#1E4060" stroke-width="0.08"/>
  <rect x="4" y="10" width="1" height="1" fill="#112240" stroke="#1E4060" stroke-width="0.08"/>
  <rect x="5" y="10" width="1" height="1" fill="#112240" stroke="#1E4060" stroke-width="0.08"/>
  <rect x="6" y="10" width="1" height="1" fill="#112240" stroke="#1E4060" stroke-width="0.08"/>

  <!-- Pixels actifs N #64FFDA -->
  <!-- Row 0: 0,1,2,3,9,10 -->
  <rect x="0" y="0" width="1" height="1" fill="#64FFDA"/>
  <rect x="1" y="0" width="1" height="1" fill="#64FFDA"/>
  <rect x="2" y="0" width="1" height="1" fill="#64FFDA"/>
  <rect x="3" y="0" width="1" height="1" fill="#64FFDA"/>
  <rect x="9" y="0" width="1" height="1" fill="#64FFDA"/>
  <rect x="10" y="0" width="1" height="1" fill="#64FFDA"/>
  <!-- Row 1: 0,1,3,4,9,10 -->
  <rect x="0" y="1" width="1" height="1" fill="#64FFDA"/>
  <rect x="1" y="1" width="1" height="1" fill="#64FFDA"/>
  <rect x="3" y="1" width="1" height="1" fill="#64FFDA"/>
  <rect x="4" y="1" width="1" height="1" fill="#64FFDA"/>
  <rect x="9" y="1" width="1" height="1" fill="#64FFDA"/>
  <rect x="10" y="1" width="1" height="1" fill="#64FFDA"/>
  <!-- Row 2: 0,1,3,4,9,10 -->
  <rect x="0" y="2" width="1" height="1" fill="#64FFDA"/>
  <rect x="1" y="2" width="1" height="1" fill="#64FFDA"/>
  <rect x="3" y="2" width="1" height="1" fill="#64FFDA"/>
  <rect x="4" y="2" width="1" height="1" fill="#64FFDA"/>
  <rect x="9" y="2" width="1" height="1" fill="#64FFDA"/>
  <rect x="10" y="2" width="1" height="1" fill="#64FFDA"/>
  <!-- Row 3: 0,1,4,5,9,10 -->
  <rect x="0" y="3" width="1" height="1" fill="#64FFDA"/>
  <rect x="1" y="3" width="1" height="1" fill="#64FFDA"/>
  <rect x="4" y="3" width="1" height="1" fill="#64FFDA"/>
  <rect x="5" y="3" width="1" height="1" fill="#64FFDA"/>
  <rect x="9" y="3" width="1" height="1" fill="#64FFDA"/>
  <rect x="10" y="3" width="1" height="1" fill="#64FFDA"/>
  <!-- Row 4: 0,1,4,5,9,10 -->
  <rect x="0" y="4" width="1" height="1" fill="#64FFDA"/>
  <rect x="1" y="4" width="1" height="1" fill="#64FFDA"/>
  <rect x="4" y="4" width="1" height="1" fill="#64FFDA"/>
  <rect x="5" y="4" width="1" height="1" fill="#64FFDA"/>
  <rect x="9" y="4" width="1" height="1" fill="#64FFDA"/>
  <rect x="10" y="4" width="1" height="1" fill="#64FFDA"/>
  <!-- Row 5: 0,1,5,6,9,10 -->
  <rect x="0" y="5" width="1" height="1" fill="#64FFDA"/>
  <rect x="1" y="5" width="1" height="1" fill="#64FFDA"/>
  <rect x="5" y="5" width="1" height="1" fill="#64FFDA"/>
  <rect x="6" y="5" width="1" height="1" fill="#64FFDA"/>
  <rect x="9" y="5" width="1" height="1" fill="#64FFDA"/>
  <rect x="10" y="5" width="1" height="1" fill="#64FFDA"/>
  <!-- Row 6: 0,1,5,6,9,10 -->
  <rect x="0" y="6" width="1" height="1" fill="#64FFDA"/>
  <rect x="1" y="6" width="1" height="1" fill="#64FFDA"/>
  <rect x="5" y="6" width="1" height="1" fill="#64FFDA"/>
  <rect x="6" y="6" width="1" height="1" fill="#64FFDA"/>
  <rect x="9" y="6" width="1" height="1" fill="#64FFDA"/>
  <rect x="10" y="6" width="1" height="1" fill="#64FFDA"/>
  <!-- Row 7: 0,1,6,7,9,10 -->
  <rect x="0" y="7" width="1" height="1" fill="#64FFDA"/>
  <rect x="1" y="7" width="1" height="1" fill="#64FFDA"/>
  <rect x="6" y="7" width="1" height="1" fill="#64FFDA"/>
  <rect x="7" y="7" width="1" height="1" fill="#64FFDA"/>
  <rect x="9" y="7" width="1" height="1" fill="#64FFDA"/>
  <rect x="10" y="7" width="1" height="1" fill="#64FFDA"/>
  <!-- Row 8: 0,1,6,7,9,10 -->
  <rect x="0" y="8" width="1" height="1" fill="#64FFDA"/>
  <rect x="1" y="8" width="1" height="1" fill="#64FFDA"/>
  <rect x="6" y="8" width="1" height="1" fill="#64FFDA"/>
  <rect x="7" y="8" width="1" height="1" fill="#64FFDA"/>
  <rect x="9" y="8" width="1" height="1" fill="#64FFDA"/>
  <rect x="10" y="8" width="1" height="1" fill="#64FFDA"/>
  <!-- Row 9: 0,1,7,8,9,10 -->
  <rect x="0" y="9" width="1" height="1" fill="#64FFDA"/>
  <rect x="1" y="9" width="1" height="1" fill="#64FFDA"/>
  <rect x="7" y="9" width="1" height="1" fill="#64FFDA"/>
  <rect x="8" y="9" width="1" height="1" fill="#64FFDA"/>
  <rect x="9" y="9" width="1" height="1" fill="#64FFDA"/>
  <rect x="10" y="9" width="1" height="1" fill="#64FFDA"/>
  <!-- Row 10: 0,1,7,8,9,10 -->
  <rect x="0" y="10" width="1" height="1" fill="#64FFDA"/>
  <rect x="1" y="10" width="1" height="1" fill="#64FFDA"/>
  <rect x="7" y="10" width="1" height="1" fill="#64FFDA"/>
  <rect x="8" y="10" width="1" height="1" fill="#64FFDA"/>
  <rect x="9" y="10" width="1" height="1" fill="#64FFDA"/>
  <rect x="10" y="10" width="1" height="1" fill="#64FFDA"/>
</svg>
